# xmcd CD database file
#
# Track frame offsets:
#	150
#	34015
#	51162
#	77742
#	107735
#	133117
#	151935
#	179817
#	203040
#	236722
#	258520
#
# Disc length: 3714 seconds
#
# Revision: 0
# Processed by: cddbd v1.5.1PL0 Copyright (c) Steve Scherf et al.
# Submitted via: CDex 1.51
#
DISCID=970e800b
DTITLE=Harry Allen - Day Dream
DYEAR=1998
DGENRE=Jazz
TTITLE0=A SLEEPIN' BEE
TTITLE1=MAYBE SEPTEMBER
TTITLE2=I'M CHECKING OUT, GOOMBYE
TTITLE3=A CHILD IS BORN
TTITLE4=SHIBUYA AFTER DARK
TTITLE5=THE MIDNIGHT SUN WILL NEVER SETS
TTITLE6=THREE AND ONE
TTITLE7=DAY DREAM
TTITLE8=LOW LIFE
TTITLE9=THEY SAY IT'S SPRING
TTITLE10=THE CHRISTMAS SONG
EXTD=YEAR: 1998
EXTT0=
EXTT1=
EXTT2=
EXTT3=
EXTT4=
EXTT5=
EXTT6=
EXTT7=
EXTT8=
EXTT9=
EXTT10=
PLAYORDER=
